{"title":"Czechstreets #38 Monika - MKV-reUp","uid":8501755,"size":350411532,"categoryP":"porn","categoryS":"movies","magnet":"?xt=urn:btih:90056e4cab6fae9a1b9bbf96fd43df08eb979f29&amp;dn=Czechstreets+%2338+Monika+-+MKV-reUp&amp;tr=udp%3A%2F%2Ftracker.openbittorrent.com%3A80&amp;tr=udp%3A%2F%2Fopen.demonii.com%3A1337&amp;tr=udp%3A%2F%2Ftracker.coppersurfer.tk%3A6969&amp;tr=udp%3A%2F%2Fexodus.desync.com%3A6969","seeders":0,"leechers":0,"uploader":"Jolly_Rogers69","files":-1,"time":1369318940,"description":"Video thumbnail : http://img19.imageshack.us/img19/2443/czechstreets38720x57620.jpg\n\nGeneral\nComplete name                            : czech-streets-38-720x576-2000kbps.wmv\nFormat                                   : Windows Media\nFile size                                : 334 MiB\nDuration                                 : 22mn 19s\nOverall bit rate mode                    : Constant\nOverall bit rate                         : 2 093 Kbps\nMaximum Overall bit rate                 : 2 115 Kbps\nEncoded date                             : UTC 2011-07-26 12:53:47.320\n\nVideo\nID                                       : 1\nFormat                                   : VC-1\nFormat profile                           : MP@ML\nCodec ID                                 : WMV3\nCodec ID/Info                            : Windows Media Video 9\nCodec ID/Hint                            : WMV3\nDescription of the codec                 : Windows Media Video 9 - Professional\nDuration                                 : 22mn 19s\nBit rate mode                            : Constant\nBit rate                                 : 2 000 Kbps\nWidth                                    : 720 pixels\nHeight                                   : 576 pixels\nDisplay aspect ratio                     : 4:3\nFrame rate                               : 25.000 fps\nStandard                                 : PAL\nBit depth                                : 8 bits\nScan type                                : Progressive\nCompression mode                         : Lossy\nBits/(Pixel*Frame)                       : 0.193\nStream size                              : 319 MiB (96%)\nLanguage                                 : Czech\n\nAudio\nID                                       : 2\nFormat                                   : WMA\nFormat version                           : Version 2\nCodec ID                                 : 161\nCodec ID/Info                            : Windows Media Audio\nDescription of the codec                 : Windows Media Audio 9.2 -  96 kbps, 44 kHz, stereo 1-pass CBR\nDuration                                 : 22mn 19s\nBit rate mode                            : Constant\nBit rate                                 : 96.0 Kbps\nChannel(s)                               : 2 channels\nSampling rate                            : 44.1 KHz\nBit depth                                : 16 bits\nStream size                              : 15.3 MiB (5%)\nLanguage                                 : Czech","torrent":{"xt":"urn:btih:90056e4cab6fae9a1b9bbf96fd43df08eb979f29","amp;dn":"Czechstreets+%2338+Monika+-+MKV-reUp","amp;tr":["udp%3A%2F%2Ftracker.openbittorrent.com%3A80","udp%3A%2F%2Fopen.demonii.com%3A1337","udp%3A%2F%2Ftracker.coppersurfer.tk%3A6969","udp%3A%2F%2Fexodus.desync.com%3A6969"],"infoHash":"90056e4cab6fae9a1b9bbf96fd43df08eb979f29","infoHashBuffer":{"type":"Buffer","data":[144,5,110,76,171,111,174,154,27,155,191,150,253,67,223,8,235,151,159,41]},"announce":[],"urlList":[]}}